<?xml version="1.0" standalone="no"?>
<!DOCTYPE svg PUBLIC "-//W3C//DTD SVG 20010904//EN"
 "http://www.w3.org/TR/2001/REC-SVG-20010904/DTD/svg10.dtd">
<svg version="1.0" xmlns="http://www.w3.org/2000/svg"
 width="1611.000000pt" height="1920.000000pt" viewBox="0 0 1611.000000 1920.000000"
 preserveAspectRatio="xMidYMid meet">

<g transform="translate(0.000000,1920.000000) scale(0.100000,-0.100000)"
fill="#000000" stroke="none">
<path d="M3782 19185 c-241 -44 -440 -148 -629 -329 -134 -127 -259 -292 -338
-443 -27 -52 -28 -53 -74 -53 -130 -1 -343 -43 -508 -101 -526 -186 -938 -669
-1052 -1234 -23 -116 -37 -246 -51 -505 -26 -449 -55 -566 -240 -935 -164
-330 -199 -421 -269 -702 -43 -172 -77 -376 -101 -608 -39 -389 -79 -606 -141
-767 -18 -46 -78 -173 -134 -283 -64 -126 -117 -246 -143 -325 -164 -499 -128
-1058 99 -1513 58 -117 113 -197 237 -344 174 -207 250 -356 273 -532 10 -78
9 -103 -5 -169 -46 -218 -58 -417 -36 -562 18 -113 179 -420 220 -420 27 0 28
17 7 89 -15 50 -20 98 -20 201 -1 156 17 242 102 490 47 137 49 142 50 95 0
-27 -4 -90 -9 -140 -15 -168 26 -412 100 -588 57 -136 186 -313 279 -383 l48
-36 6 -132 c13 -272 69 -479 257 -951 164 -410 511 -1041 1303 -2365 362 -605
682 -1121 825 -1330 220 -320 583 -713 784 -848 143 -97 512 -289 585 -305
l58 -14 13 -64 c8 -36 14 -138 15 -234 1 -193 -13 -286 -69 -473 -44 -144 -75
-211 -196 -427 -179 -320 -321 -619 -403 -855 -73 -209 -133 -486 -136 -620 0
-36 -7 -129 -15 -206 -13 -143 -11 -207 10 -222 6 -5 67 -5 136 -1 69 4 332 7
585 7 253 1 548 3 655 7 578 17 1402 26 1415 15 8 -7 18 -9 24 -6 11 7 36 142
51 281 7 55 18 112 26 127 16 30 18 60 5 73 -6 6 -6 69 -1 155 12 200 12 494
0 788 -44 1067 -186 2061 -476 3322 -138 599 -164 770 -165 1049 -1 652 234
1078 730 1326 87 43 806 343 1466 612 330 134 505 218 633 304 88 59 106 81
83 105 -6 5 -32 122 -60 259 -64 318 -139 634 -236 995 -128 478 -156 546
-260 628 -27 22 -185 111 -350 197 -410 215 -495 266 -586 352 -106 101 -144
173 -174 333 -26 134 -110 1549 -102 1725 5 129 20 174 101 309 103 170 101
162 102 401 2 340 42 543 172 866 64 158 293 671 376 839 75 152 179 320 191
308 3 -2 -8 -35 -24 -74 -35 -88 -51 -155 -104 -439 l-42 -230 2 -336 c3 -314
5 -346 29 -475 70 -378 84 -500 84 -749 0 -190 -19 -376 -67 -656 -55 -329
-49 -529 17 -537 21 -2 34 9 76 65 69 93 224 325 263 396 74 130 230 209 320
163 39 -20 90 -81 114 -135 24 -55 47 -200 47 -301 0 -148 -60 -437 -116 -559
-33 -73 -60 -100 -169 -174 -49 -33 -114 -82 -143 -108 -65 -59 -114 -77 -166
-59 -45 14 -97 66 -121 120 -34 74 -74 40 -62 -52 12 -86 120 -168 221 -168
73 1 127 29 215 113 42 41 115 99 163 130 99 65 126 94 163 173 15 31 28 54
31 51 2 -2 11 -33 19 -68 32 -140 287 -1025 315 -1093 87 -207 266 -389 499
-506 98 -49 285 -108 417 -131 95 -16 186 -22 448 -28 181 -5 336 -7 345 -5 9
1 77 5 152 8 l136 6 43 -123 c177 -510 384 -902 593 -1123 240 -255 433 -390
1271 -889 220 -131 452 -271 515 -313 600 -389 837 -772 1030 -1668 100 -463
155 -808 275 -1724 30 -228 80 -599 110 -825 168 -1247 209 -1646 271 -2610
13 -211 23 -307 41 -393 3 -17 10 -22 27 -20 18 3 23 13 35 78 27 154 5 551
-73 1320 -137 1344 -177 1693 -275 2381 -64 453 -218 1391 -269 1644 -213
1057 -458 1474 -1126 1919 -133 89 -683 422 -976 591 l-136 78 10 41 c18 73
14 370 -6 471 -65 324 -228 605 -544 938 -192 203 -241 274 -278 401 -12 41
-14 61 -6 69 6 6 60 11 128 12 173 2 205 17 518 240 622 444 1013 852 1231
1286 151 301 218 607 218 994 -1 311 -41 574 -129 842 -41 123 -43 136 -38
211 l6 81 56 35 c204 126 342 346 400 634 30 150 41 278 41 481 1 342 -54 610
-173 846 -79 158 -147 241 -345 424 -93 86 -133 131 -164 185 -203 349 -553
588 -953 651 -193 31 -424 5 -544 -60 -25 -14 -77 -50 -115 -80 -44 -35 -81
-56 -104 -60 -85 -13 -207 -46 -259 -69 l-55 -26 -87 34 c-285 114 -668 170
-997 147 -362 -27 -577 -92 -1101 -334 -213 -99 -417 -203 -505 -258 -310
-192 -535 -444 -583 -654 -14 -60 -26 -78 -139 -218 -136 -170 -166 -212 -218
-307 -168 -304 -363 -763 -437 -1027 -28 -100 -51 -213 -66 -324 l-6 -46 -81
-42 c-46 -23 -86 -37 -90 -33 -15 15 -56 142 -75 232 -27 125 -24 452 5 705
79 681 46 916 -218 1540 -137 324 -171 439 -205 705 -45 351 -114 546 -275
785 -166 245 -465 528 -708 668 -119 69 -228 110 -432 162 -99 25 -220 59
-268 76 -132 46 -445 204 -652 330 -411 249 -573 335 -715 378 -162 50 -351
63 -503 36z m1128 -1541 c96 -5 117 -10 235 -57 115 -45 138 -58 195 -111 36
-34 113 -101 170 -151 346 -297 464 -417 573 -580 67 -102 103 -175 189 -390
66 -165 115 -267 212 -437 172 -305 200 -389 270 -818 73 -440 80 -505 80
-720 0 -224 -10 -309 -64 -581 -22 -108 -40 -209 -40 -225 0 -51 -7 -54 -95
-43 -75 10 -451 -2 -572 -17 -56 -7 -91 -38 -141 -123 l-41 -68 -91 -12 c-217
-28 -272 -78 -350 -318 -21 -63 -39 -115 -41 -118 -6 -6 -234 14 -354 31 -290
41 -355 72 -851 405 -42 28 -67 58 -137 169 -265 421 -473 865 -636 1364 -74
225 -90 306 -98 486 -7 184 -25 137 190 495 179 298 280 492 330 635 54 155
65 205 86 416 11 106 27 220 36 255 31 118 94 221 151 245 18 7 45 33 61 56
25 37 33 43 61 40 26 -3 40 5 81 43 46 43 52 46 66 31 15 -14 21 -13 73 16 31
17 67 37 80 45 18 11 26 12 38 2 12 -10 19 -8 37 9 35 33 68 42 132 37 33 -3
107 -8 165 -11z m3095 -4160 c6 -60 5 -68 -16 -90 -24 -25 -132 -84 -156 -84
-18 0 -19 165 0 177 12 8 146 61 158 62 4 1 10 -29 14 -65z m-256 -183 c-3
-23 -12 -47 -20 -52 -20 -12 -22 4 -7 43 14 33 13 68 -1 68 -5 0 -12 -15 -17
-32 -12 -41 -46 -58 -176 -87 -53 -12 -120 -31 -149 -42 -30 -12 -136 -38
-236 -60 -100 -22 -195 -44 -210 -50 -29 -11 -29 -11 -83 62 l-19 26 217 72
c119 40 325 109 457 155 l240 82 5 -70 c3 -39 3 -91 -1 -115z m-1101 149 c35
-6 107 -25 160 -42 65 -20 125 -32 182 -35 101 -5 136 -11 124 -22 -5 -5 -61
-26 -124 -46 -63 -21 -135 -46 -158 -57 l-44 -18 -46 41 c-110 96 -180 108
-488 79 -120 -11 -236 -20 -256 -20 l-38 0 30 49 c34 55 45 62 115 70 98 12
480 13 543 1z m1382 -197 c0 -70 -20 -117 -94 -221 -118 -169 -131 -221 -122
-507 3 -115 9 -248 13 -294 l6 -84 -49 7 c-68 9 -267 57 -278 66 -4 4 10 39
32 77 175 301 259 549 269 794 l6 137 62 17 c34 9 79 27 101 40 21 14 42 25
47 25 4 0 7 -26 7 -57z m-1398 11 c30 -15 59 -49 206 -235 55 -70 128 -157
162 -195 34 -38 66 -80 72 -93 33 -88 -80 -135 -146 -61 -14 17 -32 30 -40 30
-7 0 -25 18 -40 40 -28 43 -96 84 -161 96 -55 10 -139 88 -130 121 10 40 -4
44 -56 16 -85 -44 -133 -38 -264 32 -159 85 -178 94 -247 111 -153 40 -286
-29 -371 -190 -74 -142 -226 -531 -212 -544 17 -17 124 157 248 403 104 205
149 249 258 247 68 -1 96 -12 261 -103 158 -87 263 -131 414 -170 66 -17 132
-38 147 -46 60 -31 108 -195 131 -443 14 -156 10 -200 -18 -200 -25 0 -36 26
-86 211 -61 226 -72 250 -132 304 -141 127 -494 165 -664 71 -75 -42 -122
-103 -175 -229 -50 -118 -96 -190 -189 -300 -39 -45 -85 -111 -103 -147 -29
-59 -32 -74 -35 -177 -4 -127 10 -189 53 -236 50 -53 59 -35 34 68 -38 152
-12 224 139 388 132 142 160 197 241 464 51 165 88 179 329 128 214 -46 301
-84 331 -143 16 -32 131 -428 131 -453 0 -20 -42 -49 -71 -49 -62 0 -104 43
-148 151 -28 71 -109 154 -139 145 -13 -4 -37 1 -61 14 -43 22 -101 26 -131
10 -39 -21 -45 -49 -45 -205 l0 -150 -44 -132 c-24 -72 -41 -139 -37 -148 5
-15 10 -14 45 6 22 12 49 35 61 51 l22 30 44 -82 c50 -94 88 -148 187 -269 76
-93 107 -150 181 -330 50 -123 78 -160 95 -132 5 8 -1 41 -15 85 -14 39 -29
98 -35 131 -14 73 -120 283 -224 440 -79 119 -99 156 -140 255 -23 56 -27 82
-30 190 -2 69 -5 134 -7 144 -3 18 3 20 64 19 36 0 71 -4 76 -7 6 -3 20 -37
33 -74 42 -128 86 -188 164 -223 80 -37 184 -11 228 57 17 26 27 32 47 28 60
-13 112 38 125 122 9 62 -18 349 -41 426 -4 14 3 16 50 15 43 -1 62 4 85 21
l29 21 6 -62 c3 -34 10 -123 16 -197 18 -213 58 -513 101 -754 48 -268 55
-357 40 -505 -11 -107 -23 -171 -101 -541 -29 -139 -39 -220 -59 -485 -9 -111
-12 -124 -51 -201 -40 -79 -45 -112 -14 -100 10 4 14 -4 14 -32 0 -43 -107
-1169 -145 -1528 -187 -1763 -479 -3031 -949 -4127 -168 -392 -258 -552 -376
-668 -117 -115 -260 -165 -362 -125 -78 29 -391 197 -488 260 -164 108 -316
233 -388 319 -423 509 -557 717 -1707 2657 -246 415 -477 804 -512 864 -36 60
-72 125 -80 145 -9 20 -65 142 -125 271 -211 450 -297 695 -343 970 -22 135
-30 357 -16 465 16 123 53 297 61 288 13 -14 39 -137 51 -236 14 -110 3 -225
-31 -323 -12 -34 -17 -61 -11 -67 10 -10 92 16 138 44 82 51 190 212 208 310
l7 36 106 0 c340 -1 696 201 892 506 30 47 57 86 60 86 3 0 25 -25 48 -56 241
-307 425 -589 567 -873 141 -280 237 -537 304 -813 40 -165 68 -314 59 -322
-2 -3 -24 43 -48 103 -133 330 -294 722 -337 818 -55 123 -221 434 -232 434
-13 0 136 -434 237 -690 210 -534 433 -1081 591 -1452 155 -363 394 -882 440
-954 12 -19 5 -34 -86 -170 -119 -178 -203 -319 -248 -417 -38 -83 -80 -230
-71 -252 10 -28 35 -15 57 28 12 23 27 49 34 57 7 8 56 89 107 180 103 179
173 288 383 595 282 413 354 555 633 1255 396 996 510 1375 572 1915 26 221
40 291 86 425 61 177 51 218 -168 750 -33 80 -114 280 -180 445 -138 347 -250
580 -373 784 -98 161 -144 256 -169 347 l-16 60 55 150 c63 167 205 588 260
765 68 222 89 234 450 264 110 9 277 25 370 34 177 19 231 18 277 -5z m-2197
-225 c208 -131 316 -174 525 -208 109 -18 314 -40 375 -41 18 -1 -36 -29 -215
-112 -71 -33 -286 -122 -393 -162 l-67 -25 -41 82 c-56 111 -146 267 -239 412
-104 162 -99 153 -65 130 17 -10 71 -45 120 -76z m2715 41 c-8 -5 -22 -9 -30
-9 -10 0 -8 3 5 9 27 12 43 12 25 0z m5 -102 c-12 -39 -25 -44 -25 -10 0 22 5
32 16 32 11 0 14 -6 9 -22z m-73 -63 l-4 -66 -38 53 -38 53 31 12 c51 19 52
18 49 -52z m-567 -15 c3 -5 1 -10 -4 -10 -6 0 -11 5 -11 10 0 6 2 10 4 10 3 0
8 -4 11 -10z m-1187 -262 c-11 -40 -25 -78 -31 -84 -7 -7 -37 -20 -67 -29 -30
-10 -131 -47 -225 -82 -756 -287 -1125 -426 -1154 -435 -39 -11 -81 2 -81 27
0 8 17 26 38 39 47 31 311 136 664 264 428 156 725 280 823 345 22 14 43 26
47 26 3 1 -3 -32 -14 -71z m-109 -385 c-89 -315 -75 -384 141 -728 147 -234
271 -513 460 -1035 50 -140 117 -320 147 -400 31 -80 62 -167 69 -195 16 -59
18 -146 4 -197 l-11 -37 -52 5 c-377 36 -695 177 -1047 465 -108 88 -272 243
-365 346 l-47 52 75 90 c198 237 297 519 297 846 0 203 -24 352 -97 604 -25
86 -46 164 -47 174 -1 15 42 34 252 107 140 49 257 91 260 94 17 17 9 -20 -39
-191z m2157 -76 c49 -20 134 -49 189 -65 l100 -28 -5 -40 c-10 -82 0 -244 24
-374 43 -232 51 -331 51 -615 0 -300 -7 -359 -70 -560 -64 -206 -175 -387
-321 -524 -71 -66 -220 -169 -230 -159 -1 2 13 45 31 95 24 62 38 122 45 189
24 219 43 339 90 559 68 324 74 370 74 550 -1 141 -5 178 -33 310 -67 314
-131 667 -131 727 l0 27 49 -28 c26 -16 88 -45 137 -64z m427 -122 l37 -7 0
-57 c0 -31 5 -148 10 -261 5 -113 14 -315 20 -449 6 -134 15 -274 20 -310 32
-229 143 -386 382 -544 107 -71 197 -121 573 -318 175 -92 235 -141 278 -226
48 -94 184 -569 288 -1003 58 -247 149 -693 143 -700 -3 -2 -10 2 -15 10 -9
12 -10 12 -5 -3 5 -15 -8 -25 -68 -53 -41 -18 -83 -35 -93 -37 -10 -2 -38 -13
-63 -24 -25 -11 -56 -24 -70 -28 -26 -8 -424 -167 -475 -190 -43 -19 -188 -77
-200 -79 -5 -2 -30 -12 -55 -24 -107 -50 -143 -63 -157 -58 -8 3 -12 2 -9 -3
5 -8 -56 -35 -94 -43 -8 -2 -17 -6 -20 -9 -11 -15 -133 -60 -147 -55 -8 3 -12
2 -9 -3 7 -10 -17 -21 -44 -21 -10 0 -20 -4 -22 -8 -1 -4 -39 -23 -83 -41 -44
-19 -95 -40 -112 -48 -18 -7 -61 -24 -95 -38 -79 -29 -163 -67 -252 -111 -63
-31 -67 -32 -53 -12 8 13 20 22 26 21 6 -2 10 0 10 5 -3 17 2 29 19 48 9 10
64 81 121 156 57 76 108 135 114 131 6 -3 7 -1 3 5 -7 12 51 98 63 95 4 -1 8
4 8 10 0 7 22 44 49 82 71 101 84 122 77 129 -17 17 -47 -2 -123 -78 -47 -47
-89 -82 -94 -79 -5 3 -6 1 -3 -4 8 -13 -17 -36 -28 -25 -5 4 -5 2 -1 -5 4 -7
-13 -34 -39 -63 -25 -28 -52 -62 -61 -75 -9 -14 -21 -22 -27 -18 -5 3 -7 1 -3
-5 3 -6 0 -16 -7 -24 -7 -7 -25 -30 -38 -50 -14 -21 -29 -35 -32 -31 -4 3 -7
-1 -7 -11 0 -10 -5 -14 -12 -10 -6 4 -8 3 -5 -3 4 -6 -22 -48 -56 -94 -35 -46
-92 -126 -126 -177 -59 -86 -110 -138 -125 -127 -3 3 -4 2 -1 -2 3 -3 -24 -36
-59 -72 -36 -36 -74 -78 -86 -94 -12 -15 -26 -24 -32 -21 -7 5 -8 2 -3 -5 4
-8 -5 -30 -22 -54 -37 -53 -88 -145 -114 -205 -11 -26 -17 -36 -14 -22 3 14 8
49 11 78 5 37 10 49 16 40 7 -9 8 -5 4 12 -3 14 7 108 23 210 66 422 128 982
191 1710 32 378 70 896 70 954 l0 54 55 22 c126 51 308 211 413 362 238 345
322 831 232 1338 -59 332 -71 416 -77 534 l-6 129 24 -6 c13 -3 41 -9 62 -12z
m-4449 -1591 c33 -72 97 -181 148 -251 21 -29 39 -55 39 -57 0 -3 27 -33 60
-68 32 -35 59 -69 59 -76 0 -7 5 -10 10 -7 6 3 10 2 10 -2 0 -5 25 -35 55 -67
30 -32 52 -63 48 -69 -3 -5 -2 -7 4 -4 6 4 25 -14 42 -38 18 -25 30 -45 26
-45 -3 0 4 -10 15 -22 11 -12 18 -28 15 -36 -3 -8 0 -10 7 -6 8 5 9 2 5 -10
-4 -10 -3 -15 3 -11 5 3 20 -27 32 -67 20 -62 23 -94 22 -215 0 -139 1 -143
21 -143 12 0 32 11 45 25 12 13 26 22 30 20 4 -3 7 3 6 13 0 9 5 16 12 14 8
-1 11 2 8 7 -8 13 51 54 65 45 7 -4 9 -3 6 3 -3 5 8 20 26 33 18 13 43 36 56
52 13 15 27 25 32 22 5 -3 6 2 3 10 -3 9 -2 16 3 16 12 0 54 85 84 170 20 58
23 91 30 320 7 277 17 338 67 417 15 24 29 43 32 43 3 0 15 -15 28 -33 59 -85
326 -355 447 -452 179 -144 438 -290 616 -348 106 -35 248 -64 352 -72 74 -6
87 -10 83 -24 -5 -17 -17 -91 -36 -226 -60 -424 -201 -952 -391 -1454 -74
-196 -226 -569 -239 -586 -4 -5 -28 -60 -53 -120 -25 -61 -63 -146 -83 -190
-21 -44 -38 -84 -39 -90 -9 -37 -129 -264 -138 -258 -5 3 -7 1 -3 -5 8 -13
-24 -83 -36 -76 -4 3 -8 -2 -8 -10 0 -23 -45 -99 -196 -329 -50 -77 -51 -77
-62 -51 -7 14 -9 30 -6 36 4 6 3 8 -3 5 -9 -6 -168 313 -168 337 0 6 -3 13 -6
16 -8 6 -46 81 -49 95 -1 6 -10 26 -20 45 -10 19 -29 62 -43 95 -14 33 -57
134 -96 225 -39 90 -69 170 -66 178 2 7 1 11 -4 8 -8 -5 -34 51 -84 184 -15
38 -28 99 -32 145 -3 44 -10 107 -15 140 -5 33 -17 113 -25 177 -9 65 -32 187
-52 270 -19 84 -35 160 -36 168 -1 8 -4 17 -7 20 -3 3 -15 39 -27 81 -38 131
-131 357 -226 549 -50 102 -90 189 -89 193 1 5 -1 6 -6 3 -7 -4 -44 54 -46 74
-1 3 -13 21 -29 41 -15 20 -27 39 -27 43 0 4 -7 14 -16 23 -8 9 -13 22 -10 30
4 8 1 11 -5 8 -6 -4 -13 2 -16 14 -3 12 -8 21 -12 21 -4 0 -15 15 -25 33 -11
17 -28 42 -38 54 -12 12 -17 27 -13 34 5 7 4 10 -2 6 -6 -4 -30 19 -54 51 -24
31 -51 66 -61 76 -9 10 -14 24 -11 30 3 6 3 8 -2 4 -12 -11 -35 11 -29 27 3 7
0 16 -7 21 -8 5 -10 3 -4 -6 17 -27 -14 1 -57 52 -23 29 -38 49 -31 45 6 -4
14 -4 17 1 2 4 -5 9 -17 9 -25 2 -81 59 -72 73 3 6 0 7 -8 4 -28 -10 -28 15
-1 78 85 200 140 423 160 643 9 95 14 95 48 -1 18 -50 45 -117 60 -150z m9022
-610 c34 -97 106 -211 261 -415 277 -362 333 -447 416 -632 107 -241 154 -426
143 -576 -4 -51 -9 -98 -12 -102 -6 -10 -97 45 -249 152 -313 220 -510 457
-700 844 -79 160 -206 458 -217 508 -2 8 39 46 97 90 55 41 129 105 164 141
36 36 67 64 69 61 2 -2 15 -34 28 -71z m-5706 -4313 c29 -223 66 -415 160
-841 92 -416 162 -770 157 -791 -3 -10 -2 -17 2 -14 5 2 16 -39 25 -93 132
-725 200 -1268 236 -1862 17 -293 30 -580 30 -669 0 -94 10 -89 -98 -49 -34
13 -59 28 -55 33 5 4 2 5 -4 1 -17 -9 -244 74 -236 87 3 6 1 7 -5 3 -14 -8
-93 14 -87 24 3 4 -1 7 -8 6 -6 0 -67 22 -135 49 -88 36 -121 54 -117 64 4 10
2 11 -7 3 -16 -13 -215 78 -201 92 4 5 3 6 -5 2 -16 -9 -273 124 -265 137 3 6
1 7 -5 3 -15 -9 -55 18 -44 29 4 5 2 6 -3 2 -14 -7 -87 38 -77 48 4 4 1 5 -5
1 -10 -6 -60 21 -83 44 -3 3 -21 14 -40 24 -130 71 -453 364 -484 437 -14 34
-13 44 14 150 55 221 65 409 30 579 -24 115 -24 110 -5 110 33 0 126 40 181
78 79 54 180 160 244 257 54 82 210 397 270 542 18 45 36 81 39 79 3 -2 6 6 7
17 1 12 24 81 52 152 29 72 52 136 52 143 0 7 5 10 12 6 6 -4 8 -3 5 3 -4 5
18 79 49 164 30 85 61 174 68 199 8 25 37 117 64 205 85 271 189 656 233 865
l14 65 7 -149 c3 -82 12 -188 18 -235z m-1314 -3396 c131 -152 403 -372 618
-500 234 -140 556 -289 946 -438 247 -94 327 -120 345 -113 13 5 15 -27 15
-229 0 -128 -4 -236 -9 -239 -5 -3 -82 30 -172 73 -90 44 -303 138 -474 209
-493 207 -632 271 -835 387 -256 147 -516 360 -643 526 l-27 36 39 104 c21 57
53 148 72 202 33 95 35 97 49 75 8 -13 42 -54 76 -93z"/>
<path d="M5675 16581 c-255 -69 -375 -162 -375 -291 0 -61 24 -93 69 -93 20 0
104 37 235 103 191 98 209 105 274 108 40 2 101 -3 147 -12 42 -9 92 -16 111
-16 41 0 75 30 67 59 -7 28 -125 106 -198 132 -87 31 -238 35 -330 10z"/>
<path d="M5944 16148 l-9 -43 -67 -7 c-121 -12 -219 -74 -262 -168 -29 -64
-27 -192 4 -275 30 -80 122 -172 198 -199 149 -52 328 29 376 172 33 95 10
258 -47 341 -22 33 -23 36 -9 75 17 47 11 91 -15 100 -22 9 -43 -18 -43 -56 0
-28 -13 -37 -25 -18 -4 6 -2 17 5 25 16 20 9 79 -11 83 -12 2 -18 -8 -23 -38
-4 -27 -11 -40 -22 -40 -13 0 -15 7 -11 30 14 67 -24 84 -39 18z m53 -127 c46
-34 77 -74 98 -128 15 -37 15 -37 -2 -13 -42 58 -64 77 -101 88 -62 19 -95 15
-139 -18 -83 -61 -103 -201 -45 -315 39 -78 58 -101 107 -125 l40 -19 -50 0
c-152 1 -268 128 -268 292 0 163 103 262 274 266 36 1 55 -5 86 -28z"/>
<path d="M5367 15953 c-7 -17 -11 -71 -11 -133 1 -168 72 -421 171 -612 39
-75 98 -148 119 -148 16 0 -3 55 -59 167 -87 173 -182 550 -187 741 0 22 -20
13 -33 -15z"/>
<path d="M4347 15829 c-172 -25 -408 -194 -544 -391 -94 -136 -184 -342 -199
-458 -5 -39 -3 -48 11 -54 24 -9 29 -4 68 67 99 176 226 341 321 417 117 94
173 120 420 196 73 22 96 35 130 69 77 78 79 85 39 113 -55 39 -150 54 -246
41z"/>
<path d="M4697 15684 c-13 -14 -7 -22 42 -58 55 -41 71 -44 71 -17 0 43 -87
101 -113 75z"/>
<path d="M4438 15200 c-95 -9 -168 -47 -216 -111 -18 -24 -37 -50 -43 -56 -5
-7 -32 -13 -59 -13 -28 0 -50 -5 -50 -10 0 -15 51 -32 78 -27 19 4 23 1 20
-17 -3 -18 -10 -21 -48 -21 -25 1 -54 3 -65 5 -12 3 -20 -1 -23 -11 -4 -20 43
-41 92 -41 30 0 36 -4 36 -20 0 -19 -5 -20 -65 -16 -56 5 -65 3 -65 -11 0 -25
52 -51 102 -51 42 0 44 -2 61 -45 44 -105 121 -174 228 -201 104 -27 205 2
285 81 52 53 74 116 74 215 0 146 -74 285 -182 341 -39 20 -41 20 -160 9z
m138 -73 c35 -24 57 -51 82 -98 24 -46 27 -55 10 -34 -40 52 -64 70 -112 83
-50 13 -77 7 -128 -29 -75 -54 -95 -193 -43 -302 34 -74 70 -116 115 -136 l35
-16 -33 -3 c-64 -7 -140 25 -197 81 -63 64 -88 130 -87 226 2 128 74 215 204
247 81 19 102 17 154 -19z"/>
<path d="M5883 14794 c-7 -20 28 -58 96 -102 l54 -34 -6 -84 c-6 -95 -48 -203
-89 -225 -15 -8 -68 -13 -148 -14 -89 -1 -138 -6 -170 -18 -25 -9 -50 -17 -57
-17 -6 0 -27 29 -47 63 -38 70 -59 92 -76 82 -17 -11 19 -138 52 -180 34 -43
61 -48 131 -23 63 21 110 25 253 17 76 -4 82 -3 118 25 21 15 46 42 57 60 52
84 80 264 50 333 -14 33 -89 91 -156 118 -44 19 -54 19 -62 -1z"/>
<path d="M6313 14263 c-7 -3 -13 -11 -13 -19 0 -28 -46 -46 -99 -39 -71 10
-117 -7 -125 -46 -3 -16 -17 -41 -31 -54 -22 -23 -32 -25 -98 -23 -106 2 -145
-23 -236 -151 -79 -111 -131 -160 -208 -196 -61 -29 -72 -30 -88 -8 -11 15
-14 14 -33 -5 -21 -21 -30 -66 -14 -75 15 -10 203 14 293 37 97 25 321 103
398 139 33 15 53 36 86 88 24 37 70 97 103 132 40 45 63 80 72 111 7 25 18 46
26 46 18 0 26 17 19 39 -6 20 -31 31 -52 24z m-53 -111 c0 -4 -28 -38 -62 -77
-35 -38 -83 -96 -108 -129 l-45 -60 -175 -62 c-96 -35 -179 -63 -184 -64 -6 0
2 12 16 28 14 15 50 65 80 112 73 113 76 116 160 112 45 -1 78 3 97 12 36 19
81 72 81 95 0 9 5 22 12 29 13 13 128 17 128 4z"/>
<path d="M6312 13868 c-15 -64 -45 -97 -137 -150 -38 -22 -99 -60 -135 -84
-100 -66 -126 -74 -240 -74 -78 0 -100 -3 -100 -14 0 -36 174 -61 259 -36 18
5 72 35 120 66 47 30 115 75 151 97 98 63 153 166 120 228 -17 30 -24 23 -38
-33z"/>
<path d="M6807 11842 c-9 -10 -24 -38 -32 -62 -62 -173 -59 -385 6 -512 29
-57 42 -49 32 20 -4 31 -8 122 -8 202 0 120 4 162 24 241 29 117 21 158 -22
111z"/>
<path d="M6837 9689 c-42 -65 -61 -479 -23 -479 18 0 33 82 52 294 14 158 14
180 1 193 -13 14 -17 13 -30 -8z"/>
<path d="M6737 9592 c-31 -76 -53 -291 -32 -302 15 -7 72 317 58 331 -7 7 -15
-2 -26 -29z"/>
<path d="M6976 7027 c3 -10 9 -15 12 -12 3 3 0 11 -7 18 -10 9 -11 8 -5 -6z"/>
<path d="M3400 9590 c-9 -6 -10 -10 -3 -10 6 0 15 5 18 10 8 12 4 12 -15 0z"/>
<path d="M4817 6317 c-3 -8 1 -14 8 -14 7 0 11 6 8 14 -3 7 -6 13 -8 13 -2 0
-5 -6 -8 -13z"/>
<path d="M4736 6197 c3 -10 9 -15 12 -12 3 3 0 11 -7 18 -10 9 -11 8 -5 -6z"/>
<path d="M9265 12409 c-42 -25 -71 -59 -189 -226 -199 -284 -189 -262 -181
-368 3 -50 3 -99 -1 -108 -3 -10 -23 -26 -44 -37 -42 -21 -50 -36 -50 -85 0
-43 47 -92 96 -101 97 -18 180 22 217 105 18 41 19 55 11 166 -14 198 -11 314
12 360 l19 40 5 -176 c5 -182 10 -201 51 -214 48 -15 80 32 102 151 31 163 32
330 2 407 -5 13 -2 17 13 17 33 0 46 -58 46 -205 0 -121 -2 -137 -32 -226 -17
-53 -32 -101 -32 -108 0 -22 25 -10 47 23 49 76 83 234 83 389 0 104 -12 148
-48 181 -25 22 -99 31 -127 15z m9 -252 c-1 -107 -25 -283 -43 -315 -13 -24
-21 56 -23 225 -1 141 1 153 22 188 35 56 45 33 44 -98z m-235 -216 c-1 -33 5
-106 12 -163 15 -126 8 -168 -32 -202 -39 -33 -107 -36 -133 -7 -17 19 -16 21
24 46 58 37 74 78 63 169 -11 98 -9 113 29 168 18 26 34 48 35 48 2 0 2 -27 2
-59z"/>
<path d="M12354 8326 c-39 -22 -63 -50 -51 -62 8 -8 109 34 119 50 22 32 -19
40 -68 12z"/>
<path d="M10430 8290 c-31 -7 -39 -44 -12 -59 29 -15 1022 -264 1029 -258 17
18 -18 40 -134 85 -150 58 -373 125 -600 181 -203 50 -252 59 -283 51z"/>
<path d="M14380 6306 c0 -8 4 -26 10 -40 13 -36 87 -415 99 -511 8 -62 21
-255 17 -255 -1 0 -22 7 -48 14 -111 34 -278 41 -993 41 -838 -1 -1200 -18
-1830 -91 -861 -99 -1845 -301 -2582 -532 -34 -11 -64 -18 -66 -16 -2 2 -1 54
1 116 9 214 9 203 -14 206 -27 4 -30 -6 -45 -115 -15 -114 -6 -324 20 -475 11
-64 47 -228 80 -365 138 -567 190 -972 237 -1833 11 -207 17 -575 21 -1347 5
-1017 6 -1063 23 -1063 15 0 20 11 24 53 13 108 35 603 41 897 l7 305 48 135
c26 74 60 176 75 225 63 213 116 368 164 480 114 266 256 500 404 667 108 122
127 148 182 251 82 154 145 355 148 478 2 75 -11 101 -41 83 -9 -6 -43 -48
-74 -95 -112 -165 -275 -307 -457 -398 -45 -23 -85 -41 -86 -39 -2 2 0 21 5
43 30 132 52 338 57 518 3 108 2 197 -2 197 -19 0 -106 -64 -145 -107 -41 -45
-43 -46 -57 -27 -7 10 -29 69 -49 130 -71 230 -140 586 -151 779 -7 128 -3
139 81 244 102 127 92 120 201 147 1352 343 2780 499 4050 443 l260 -12 53
-40 c92 -70 192 -168 234 -229 31 -47 44 -79 59 -151 43 -207 69 -585 69 -987
-1 -302 -9 -401 -41 -467 -109 -225 -735 -764 -1339 -1152 -19 -12 -26 -20
-15 -17 11 3 58 15 105 26 245 61 480 133 684 210 192 71 276 111 392 186 109
69 130 76 121 43 -23 -86 -326 -496 -484 -654 -84 -84 -456 -265 -660 -320
-139 -38 -171 -57 -140 -80 38 -28 151 -27 277 0 30 7 -79 -46 -165 -80 -300
-119 -711 -213 -1125 -259 -723 -80 -1802 -46 -2202 70 -13 4 -18 0 -18 -14 0
-28 163 -102 413 -188 117 -39 277 -95 357 -122 204 -71 347 -112 689 -197
416 -104 682 -188 991 -312 411 -166 703 -328 847 -470 90 -89 130 -118 238
-179 l70 -39 205 -2 c113 -2 412 -4 666 -6 l461 -2 11 25 c13 29 90 438 121
640 51 339 101 891 122 1362 15 335 6 1239 -15 1551 -43 616 -101 1067 -203
1577 -20 105 -70 205 -126 257 l-42 39 -1 164 c-1 174 -17 290 -55 410 -28 89
-131 284 -152 288 -10 2 -17 -3 -17 -12z"/>
</g>
</svg>
